<mxfile host="app.diagrams.net" modified="2020-10-04T16:05:27.885Z" agent="5.0 (Macintosh; Intel Mac OS X 10_15_5) AppleWebKit/537.36 (KHTML, like Gecko) Chrome/85.0.4183.102 Safari/537.36" etag="P7nCMZVWaXA1SPBMfPV2" version="13.7.7" type="github">
  <diagram id="C5RBs43oDa-KdzZeNtuy" name="Page-1">
    <mxGraphModel dx="946" dy="591" grid="1" gridSize="10" guides="1" tooltips="1" connect="1" arrows="1" fold="1" page="1" pageScale="1" pageWidth="827" pageHeight="1169" math="0" shadow="0">
      <root>
        <mxCell id="WIyWlLk6GJQsqaUBKTNV-0" />
        <mxCell id="WIyWlLk6GJQsqaUBKTNV-1" parent="WIyWlLk6GJQsqaUBKTNV-0" />
        <mxCell id="WIyWlLk6GJQsqaUBKTNV-2" value="" style="rounded=0;html=1;jettySize=auto;orthogonalLoop=1;fontSize=11;endArrow=block;endFill=0;endSize=8;strokeWidth=1;shadow=0;labelBackgroundColor=none;edgeStyle=orthogonalEdgeStyle;" parent="WIyWlLk6GJQsqaUBKTNV-1" source="WIyWlLk6GJQsqaUBKTNV-3" edge="1">
          <mxGeometry relative="1" as="geometry">
            <mxPoint x="329" y="110" as="targetPoint" />
          </mxGeometry>
        </mxCell>
        <mxCell id="WIyWlLk6GJQsqaUBKTNV-3" value="population initialization&lt;br&gt;(by clusters)" style="rounded=1;whiteSpace=wrap;html=1;fontSize=12;glass=0;strokeWidth=1;shadow=0;" parent="WIyWlLk6GJQsqaUBKTNV-1" vertex="1">
          <mxGeometry x="269" y="20" width="120" height="40" as="geometry" />
        </mxCell>
        <mxCell id="6Rhlg8qezkjGVqoXds-t-30" value="" style="edgeStyle=orthogonalEdgeStyle;rounded=0;orthogonalLoop=1;jettySize=auto;html=1;" edge="1" parent="WIyWlLk6GJQsqaUBKTNV-1" source="6Rhlg8qezkjGVqoXds-t-1" target="6Rhlg8qezkjGVqoXds-t-2">
          <mxGeometry relative="1" as="geometry" />
        </mxCell>
        <mxCell id="6Rhlg8qezkjGVqoXds-t-1" value="Selection" style="rounded=1;whiteSpace=wrap;html=1;" vertex="1" parent="WIyWlLk6GJQsqaUBKTNV-1">
          <mxGeometry x="269" y="110" width="120" height="60" as="geometry" />
        </mxCell>
        <mxCell id="6Rhlg8qezkjGVqoXds-t-29" value="" style="edgeStyle=orthogonalEdgeStyle;rounded=0;orthogonalLoop=1;jettySize=auto;html=1;" edge="1" parent="WIyWlLk6GJQsqaUBKTNV-1" source="6Rhlg8qezkjGVqoXds-t-2" target="6Rhlg8qezkjGVqoXds-t-3">
          <mxGeometry relative="1" as="geometry" />
        </mxCell>
        <mxCell id="6Rhlg8qezkjGVqoXds-t-2" value="Crossover" style="rounded=1;whiteSpace=wrap;html=1;" vertex="1" parent="WIyWlLk6GJQsqaUBKTNV-1">
          <mxGeometry x="269" y="220" width="120" height="60" as="geometry" />
        </mxCell>
        <mxCell id="6Rhlg8qezkjGVqoXds-t-27" value="" style="edgeStyle=orthogonalEdgeStyle;rounded=0;orthogonalLoop=1;jettySize=auto;html=1;" edge="1" parent="WIyWlLk6GJQsqaUBKTNV-1" source="6Rhlg8qezkjGVqoXds-t-3" target="6Rhlg8qezkjGVqoXds-t-4">
          <mxGeometry relative="1" as="geometry" />
        </mxCell>
        <mxCell id="6Rhlg8qezkjGVqoXds-t-3" value="Mutation" style="rounded=1;whiteSpace=wrap;html=1;" vertex="1" parent="WIyWlLk6GJQsqaUBKTNV-1">
          <mxGeometry x="269" y="330" width="120" height="60" as="geometry" />
        </mxCell>
        <mxCell id="6Rhlg8qezkjGVqoXds-t-24" value="Yes" style="edgeStyle=orthogonalEdgeStyle;rounded=0;orthogonalLoop=1;jettySize=auto;html=1;" edge="1" parent="WIyWlLk6GJQsqaUBKTNV-1" source="6Rhlg8qezkjGVqoXds-t-4" target="6Rhlg8qezkjGVqoXds-t-16">
          <mxGeometry relative="1" as="geometry" />
        </mxCell>
        <mxCell id="6Rhlg8qezkjGVqoXds-t-26" value="No" style="edgeStyle=orthogonalEdgeStyle;rounded=0;orthogonalLoop=1;jettySize=auto;html=1;" edge="1" parent="WIyWlLk6GJQsqaUBKTNV-1" source="6Rhlg8qezkjGVqoXds-t-4" target="6Rhlg8qezkjGVqoXds-t-14">
          <mxGeometry relative="1" as="geometry" />
        </mxCell>
        <mxCell id="6Rhlg8qezkjGVqoXds-t-4" value="current generation&lt;br&gt;&amp;lt;&lt;br&gt;max generation" style="rhombus;whiteSpace=wrap;html=1;" vertex="1" parent="WIyWlLk6GJQsqaUBKTNV-1">
          <mxGeometry x="249.5" y="442.5" width="159" height="110" as="geometry" />
        </mxCell>
        <mxCell id="6Rhlg8qezkjGVqoXds-t-14" value="Stop" style="rounded=1;whiteSpace=wrap;html=1;" vertex="1" parent="WIyWlLk6GJQsqaUBKTNV-1">
          <mxGeometry x="480" y="467.5" width="120" height="60" as="geometry" />
        </mxCell>
        <mxCell id="6Rhlg8qezkjGVqoXds-t-22" value="yes" style="edgeStyle=orthogonalEdgeStyle;rounded=0;orthogonalLoop=1;jettySize=auto;html=1;" edge="1" parent="WIyWlLk6GJQsqaUBKTNV-1" source="6Rhlg8qezkjGVqoXds-t-16" target="6Rhlg8qezkjGVqoXds-t-19">
          <mxGeometry relative="1" as="geometry" />
        </mxCell>
        <mxCell id="6Rhlg8qezkjGVqoXds-t-32" value="No" style="edgeStyle=orthogonalEdgeStyle;rounded=0;orthogonalLoop=1;jettySize=auto;html=1;entryX=0;entryY=0.25;entryDx=0;entryDy=0;" edge="1" parent="WIyWlLk6GJQsqaUBKTNV-1" source="6Rhlg8qezkjGVqoXds-t-16" target="WIyWlLk6GJQsqaUBKTNV-3">
          <mxGeometry x="-0.9725" relative="1" as="geometry">
            <mxPoint x="20" y="220" as="targetPoint" />
            <Array as="points">
              <mxPoint x="30" y="498" />
              <mxPoint x="30" y="40" />
              <mxPoint x="269" y="40" />
            </Array>
            <mxPoint as="offset" />
          </mxGeometry>
        </mxCell>
        <mxCell id="6Rhlg8qezkjGVqoXds-t-16" value="current generation&lt;br&gt;==&lt;br&gt;merge generation" style="rhombus;whiteSpace=wrap;html=1;" vertex="1" parent="WIyWlLk6GJQsqaUBKTNV-1">
          <mxGeometry x="50" y="445" width="150" height="105" as="geometry" />
        </mxCell>
        <mxCell id="6Rhlg8qezkjGVqoXds-t-33" style="edgeStyle=orthogonalEdgeStyle;rounded=0;orthogonalLoop=1;jettySize=auto;html=1;entryX=0;entryY=0.25;entryDx=0;entryDy=0;" edge="1" parent="WIyWlLk6GJQsqaUBKTNV-1" source="6Rhlg8qezkjGVqoXds-t-18" target="WIyWlLk6GJQsqaUBKTNV-3">
          <mxGeometry relative="1" as="geometry">
            <mxPoint x="125" y="20" as="targetPoint" />
            <Array as="points">
              <mxPoint x="125" y="40" />
              <mxPoint x="269" y="40" />
            </Array>
          </mxGeometry>
        </mxCell>
        <mxCell id="6Rhlg8qezkjGVqoXds-t-18" value="Merge two cluster" style="rounded=1;whiteSpace=wrap;html=1;" vertex="1" parent="WIyWlLk6GJQsqaUBKTNV-1">
          <mxGeometry x="65" y="220" width="120" height="60" as="geometry" />
        </mxCell>
        <mxCell id="6Rhlg8qezkjGVqoXds-t-31" value="yes" style="edgeStyle=orthogonalEdgeStyle;rounded=0;orthogonalLoop=1;jettySize=auto;html=1;" edge="1" parent="WIyWlLk6GJQsqaUBKTNV-1" source="6Rhlg8qezkjGVqoXds-t-19" target="6Rhlg8qezkjGVqoXds-t-18">
          <mxGeometry relative="1" as="geometry" />
        </mxCell>
        <mxCell id="6Rhlg8qezkjGVqoXds-t-34" value="No" style="edgeStyle=orthogonalEdgeStyle;rounded=0;orthogonalLoop=1;jettySize=auto;html=1;entryX=0;entryY=0.5;entryDx=0;entryDy=0;" edge="1" parent="WIyWlLk6GJQsqaUBKTNV-1" source="6Rhlg8qezkjGVqoXds-t-19" target="WIyWlLk6GJQsqaUBKTNV-3">
          <mxGeometry x="-0.9655" relative="1" as="geometry">
            <mxPoint x="30" y="30" as="targetPoint" />
            <Array as="points">
              <mxPoint x="30" y="360" />
              <mxPoint x="30" y="40" />
            </Array>
            <mxPoint as="offset" />
          </mxGeometry>
        </mxCell>
        <mxCell id="6Rhlg8qezkjGVqoXds-t-19" value="current clusters &amp;gt; 1" style="rhombus;whiteSpace=wrap;html=1;" vertex="1" parent="WIyWlLk6GJQsqaUBKTNV-1">
          <mxGeometry x="50" y="310" width="150" height="100" as="geometry" />
        </mxCell>
      </root>
    </mxGraphModel>
  </diagram>
</mxfile>
